<svg width="235" height="23" viewBox="0 0 235 23" fill="none" xmlns="http://www.w3.org/2000/svg">
<path d="M2.59 0.999999V14.26L12.28 0.999999L12.52 1.21L7.15 8.53L15.13 22H12.34L5.62 10.63L2.59 14.8V22H0.1V0.999999H2.59ZM29.1876 2.26C27.3676 1.56 25.6476 1.21 24.0276 1.21C22.4276 1.21 21.1776 1.55 20.2776 2.23C19.3776 2.91 18.9276 3.85 18.9276 5.05C18.9276 6.51 19.6876 7.64 21.2076 8.44C21.8876 8.78 22.6276 9.1 23.4276 9.4C24.2476 9.68 25.0676 10 25.8876 10.36C26.7076 10.72 27.4576 11.13 28.1376 11.59C28.8176 12.05 29.3676 12.69 29.7876 13.51C30.2076 14.31 30.4176 15.34 30.4176 16.6C30.4176 17.84 30.0676 18.9 29.3676 19.78C28.6676 20.66 27.8176 21.26 26.8176 21.58C25.8376 21.88 24.6876 22.03 23.3676 22.03C20.9076 22.03 18.8076 21.42 17.0676 20.2L17.2176 19.96C17.8776 20.48 18.7276 20.91 19.7676 21.25C20.8276 21.57 21.9076 21.73 23.0076 21.73C24.6276 21.73 26.0076 21.36 27.1476 20.62C28.3076 19.86 28.8876 18.75 28.8876 17.29C28.8876 15.69 28.1276 14.44 26.6076 13.54C25.9276 13.14 25.1776 12.77 24.3576 12.43C23.5576 12.09 22.7476 11.74 21.9276 11.38C21.1076 11 20.3576 10.58 19.6776 10.12C18.1576 9.12 17.3976 7.7 17.3976 5.86C17.3976 4.4 17.8876 3.22 18.8676 2.32C19.8476 1.4 21.3176 0.939999 23.2776 0.939999C25.2576 0.939999 27.2676 1.28 29.3076 1.96L29.1876 2.26ZM45.497 0.999999V1.3H36.047V10.3H44.807V10.6H36.047V21.7H46.157V22H33.557V0.999999H45.497ZM49.5588 22H49.1688V0.999999H50.1888L62.6688 20.41V0.999999H63.0587V22H60.8688L49.5588 4.6V22ZM67.102 1.3V0.999999H72.442V1.3H70.972V21.7H72.442V22H67.102V21.7H68.482V1.3H67.102ZM75.5198 22H75.1598L84.1298 0.999999L84.4598 0.849999L92.0198 22H89.4698L87.1298 15.4H78.3698L75.5198 22ZM83.1998 4.24L78.4898 15.1H87.0398L83.1998 4.24ZM106.477 0.999999V14.26L116.167 0.999999L116.407 1.21L111.037 8.53L119.017 22H116.227L109.507 10.63L106.477 14.8V22H103.987V0.999999H106.477ZM121.951 22H121.561V0.999999H122.581L135.061 20.41V0.999999H135.451V22H133.261L121.951 4.6V22ZM151.915 0.999999C152.295 1.38 152.485 1.87 152.485 2.47C152.485 2.97 152.375 3.48 152.155 4L146.785 14.89V22H144.295V15.55L138.295 0.999999H140.845L146.575 14.53L151.795 4C152.015 3.5 152.125 2.98 152.125 2.44C152.125 1.9 151.975 1.48 151.675 1.18L151.915 0.999999ZM151.955 22H151.595L160.565 0.999999L160.895 0.849999L168.455 22H165.905L163.565 15.4H154.805L151.955 22ZM159.635 4.24L154.925 15.1H163.475L159.635 4.24ZM171.187 1.3V0.999999H183.427V1.3L172.837 21.7H181.867C182.447 21.7 182.977 21.6 183.457 21.4C183.937 21.2 184.257 20.91 184.417 20.53L184.657 20.65C184.617 20.75 184.547 20.88 184.447 21.04C184.367 21.18 184.097 21.38 183.637 21.64C183.177 21.88 182.617 22 181.957 22H170.407V21.7L180.937 1.3H171.187ZM199.745 0.999999V1.3H190.295V10.3H199.055V10.6H190.295V21.7H200.405V22H187.805V0.999999H199.745ZM217.697 0.999999C218.077 1.38 218.267 1.87 218.267 2.47C218.267 2.97 218.157 3.48 217.937 4L210.257 22L209.927 22.15L202.367 0.999999H204.917L211.187 18.76L217.577 4C217.797 3.5 217.907 2.98 217.907 2.44C217.907 1.9 217.757 1.48 217.457 1.18L217.697 0.999999ZM217.727 22H217.367L226.337 0.999999L226.667 0.849999L234.227 22H231.677L229.337 15.4H220.577L217.727 22ZM225.407 4.24L220.697 15.1H229.247L225.407 4.24Z" fill="white"/>
</svg>
