<svg width="23" height="23" viewBox="0 0 23 23" fill="none" xmlns="http://www.w3.org/2000/svg">
<g clip-path="url(#clip0)">
<rect width="23" height="23" fill="black"/>
<path d="M16.6477 7.60549C16.5419 7.31876 16.3731 7.05923 16.1538 6.84621C15.9407 6.62686 15.6814 6.45805 15.3945 6.35224C15.1618 6.26187 14.8123 6.1543 14.1684 6.125C13.472 6.09324 13.2632 6.0864 11.5 6.0864C9.73661 6.0864 9.52779 6.09306 8.8315 6.12482C8.18768 6.1543 7.83796 6.26187 7.60545 6.35224C7.31855 6.45805 7.05902 6.62686 6.84617 6.84621C6.62682 7.05923 6.45802 7.31859 6.35203 7.60549C6.26166 7.83817 6.15409 8.1879 6.12479 8.83172C6.09303 9.52801 6.08618 9.73682 6.08618 11.5002C6.08618 13.2634 6.09303 13.4722 6.12479 14.1686C6.15409 14.8125 6.26166 15.162 6.35203 15.3947C6.45802 15.6816 6.62665 15.941 6.84599 16.154C7.05902 16.3733 7.31837 16.5421 7.60528 16.6479C7.83796 16.7385 8.18768 16.8461 8.8315 16.8754C9.52779 16.9071 9.73643 16.9138 11.4998 16.9138C13.2633 16.9138 13.4721 16.9071 14.1683 16.8754C14.8121 16.8461 15.1618 16.7385 15.3945 16.6479C15.9704 16.4258 16.4256 15.9706 16.6477 15.3947C16.7381 15.162 16.8457 14.8125 16.8752 14.1686C16.9069 13.4722 16.9136 13.2634 16.9136 11.5002C16.9136 9.73682 16.9069 9.52801 16.8752 8.83172C16.8458 8.1879 16.7383 7.83817 16.6477 7.60549ZM11.5 14.8909C9.62711 14.8909 8.10889 13.3729 8.10889 11.5C8.10889 9.62715 9.62711 8.10911 11.5 8.10911C13.3727 8.10911 14.8909 9.62715 14.8909 11.5C14.8909 13.3729 13.3727 14.8909 11.5 14.8909ZM15.0249 8.76749C14.5873 8.76749 14.2325 8.41268 14.2325 7.97504C14.2325 7.53741 14.5873 7.18259 15.0249 7.18259C15.4626 7.18259 15.8174 7.53741 15.8174 7.97504C15.8172 8.41268 15.4626 8.76749 15.0249 8.76749Z" fill="white"/>
<path d="M13.7012 11.5C13.7012 12.7157 12.7157 13.7012 11.5 13.7012C10.2843 13.7012 9.29883 12.7157 9.29883 11.5C9.29883 10.2843 10.2843 9.29883 11.5 9.29883C12.7157 9.29883 13.7012 10.2843 13.7012 11.5Z" fill="white"/>
<path d="M21.3412 0H1.65878C0.742615 0 0 0.742615 0 1.65878V21.3412C0 22.2574 0.742615 23 1.65878 23H21.3412C22.2574 23 23 22.2574 23 21.3412V1.65878C23 0.742615 22.2574 0 21.3412 0V0ZM18.0637 14.2225C18.0317 14.9255 17.92 15.4054 17.7568 15.8255C17.4137 16.7125 16.7125 17.4137 15.8255 17.7568C15.4056 17.92 14.9255 18.0316 14.2227 18.0637C13.5185 18.0958 13.2935 18.1035 11.5002 18.1035C9.70663 18.1035 9.48185 18.0958 8.77749 18.0637C8.07471 18.0316 7.5946 17.92 7.17469 17.7568C6.73389 17.591 6.33486 17.3311 6.00497 16.995C5.66911 16.6653 5.40923 16.2661 5.2434 15.8255C5.08021 15.4056 4.96843 14.9255 4.93649 14.2227C4.90403 13.5183 4.89648 13.2934 4.89648 11.5C4.89648 9.70663 4.90403 9.48167 4.93632 8.77749C4.96825 8.07453 5.07986 7.5946 5.24305 7.17451C5.40887 6.73389 5.66893 6.33469 6.00497 6.00497C6.33469 5.66893 6.73389 5.40905 7.17451 5.24323C7.5946 5.08003 8.07453 4.96843 8.77749 4.93632C9.48167 4.90421 9.70663 4.89648 11.5 4.89648C13.2934 4.89648 13.5183 4.90421 14.2225 4.93649C14.9255 4.96843 15.4054 5.08003 15.8255 5.24305C16.2661 5.40887 16.6653 5.66893 16.9952 6.00497C17.3311 6.33486 17.5911 6.73389 17.7568 7.17451C17.9201 7.5946 18.0317 8.07453 18.0639 8.77749C18.096 9.48167 18.1035 9.70663 18.1035 11.5C18.1035 13.2934 18.096 13.5183 18.0637 14.2225Z" fill="white"/>
</g>
<defs>
<clipPath id="clip0">
<rect width="23" height="23" fill="white"/>
</clipPath>
</defs>
</svg>
