<svg width="60" height="33" viewBox="0 0 60 33" fill="none" xmlns="http://www.w3.org/2000/svg">
<path d="M60 26.3476C59.9961 28.1111 59.0134 29.8015 57.2673 31.0485C55.5212 32.2955 53.154 32.9972 50.6846 33H0V6.65238C0.00387967 4.88891 0.986567 3.19846 2.7327 1.9515C4.47884 0.704534 6.846 0.00277058 9.3154 0L60 0V26.3476Z" fill="#141414"/>
<path d="M43.4963 19.5905H47.3472C47.4572 19.5905 47.7139 19.5643 47.824 19.5643C48.2154 19.504 48.5652 19.3481 48.8129 19.1233C49.0606 18.8986 49.1908 18.6192 49.1809 18.3333C49.18 18.0494 49.0458 17.7738 48.7998 17.5507C48.5538 17.3276 48.2103 17.1697 47.824 17.1024C47.6672 17.0793 47.507 17.0705 47.3472 17.0762H43.4963V19.5905Z" fill="white"/>
<path d="M46.9071 2.2262C45.1368 2.2262 43.4391 2.7284 42.1873 3.62232C40.9355 4.51624 40.2323 5.72867 40.2323 6.99286V11.9429H49.6577C49.8784 11.9372 50.0994 11.946 50.3179 11.9691C52.445 12.0476 54.022 12.8333 54.022 14.1952C54.022 15.2691 52.9585 16.1857 50.978 16.3691V16.4214C53.1418 16.5262 54.7922 17.3905 54.7922 18.7262C54.7922 20.1667 52.9585 21.1095 50.5379 21.1095H40.1956V30.8H49.9878C51.7581 30.8 53.4558 30.2978 54.7076 29.4039C55.9594 28.51 56.6626 27.2975 56.6626 26.0333V2.2262H46.9071Z" fill="white"/>
<path d="M48.7042 14.5095C48.7119 14.2354 48.5777 13.9689 48.3273 13.7611C48.0769 13.5533 47.7279 13.4188 47.3472 13.3833C47.2738 13.3833 47.0905 13.3571 46.9804 13.3571H43.4963V15.6619H46.9804C47.1039 15.669 47.2282 15.6602 47.3472 15.6357C47.7279 15.6003 48.0769 15.4658 48.3273 15.258C48.5777 15.0501 48.7119 14.7836 48.7042 14.5095Z" fill="white"/>
<path d="M10.0122 2.2262C8.24194 2.2262 6.54417 2.7284 5.2924 3.62232C4.04063 4.51625 3.3374 5.72867 3.3374 6.99287V18.7524C5.11727 19.4186 7.0866 19.7859 9.09534 19.8262C11.4059 19.8262 12.6528 18.831 12.6528 17.4691V11.9167H18.3741V17.4429C18.3741 19.5905 16.5037 21.3453 10.1589 21.3453C7.84696 21.3454 5.5437 21.1431 3.30072 20.7429V30.7738H13.0929C14.8632 30.7738 16.5609 30.2716 17.8127 29.3777C19.0645 28.4838 19.7677 27.2714 19.7677 26.0072V2.2262H10.0122Z" fill="white"/>
<path d="M28.4597 2.2262C26.6894 2.2262 24.9916 2.7284 23.7399 3.62232C22.4881 4.51624 21.7849 5.72866 21.7849 6.99286V13.2262C23.4719 12.2048 26.4059 11.55 31.1369 11.7071C32.9056 11.7875 34.6607 11.9804 36.3814 12.2833V14.3C34.8155 13.7019 33.0914 13.345 31.3203 13.2524C27.7262 13.0691 25.5624 14.3262 25.5624 16.5262C25.5624 18.7262 27.7262 20.0095 31.3203 19.8C33.0882 19.6951 34.809 19.3389 36.3814 18.7524V20.7691C34.6614 21.0746 32.906 21.2674 31.1369 21.3452C26.4059 21.5024 23.4719 20.8476 21.7849 19.8262V30.8262H31.577C33.3473 30.8262 35.0451 30.324 36.2968 29.4301C37.5486 28.5361 38.2518 27.3237 38.2518 26.0595V2.2262H28.4597Z" fill="white"/>
</svg>
