<svg width="57" height="37" viewBox="0 0 57 37" fill="none" xmlns="http://www.w3.org/2000/svg">
<rect x="1" y="2" width="54" height="34" rx="2" fill="white"/>
<path d="M15.051 16.0452C13.993 16.0452 13.182 16.3888 13.182 16.3888L12.958 17.7333C12.958 17.7333 13.627 17.4583 14.64 17.4583C15.215 17.4583 15.635 17.523 15.635 17.9951C15.635 18.2822 15.584 18.3883 15.584 18.3883C15.584 18.3883 15.131 18.3509 14.921 18.3509C13.586 18.3509 12.184 18.9251 12.184 20.6627C12.184 22.0314 13.103 22.3437 13.674 22.3437C14.763 22.3437 15.233 21.6301 15.257 21.6281L15.206 22.2245H16.565L17.171 17.9284C17.17 16.1038 15.597 16.0452 15.051 16.0452ZM14.289 21.0367C13.81 21.0367 13.685 20.6678 13.685 20.4474C13.685 20.0208 13.914 19.5073 15.045 19.5073C15.309 19.5083 15.337 19.5356 15.381 19.5437C15.411 19.8065 15.219 21.0367 14.289 21.0367Z" fill="#141414"/>
<path d="M19.959 17.4856C20.176 17.4856 21.013 17.5554 21.013 17.5554L21.208 16.1786C21.208 16.1786 20.666 16.0563 19.784 16.0563C18.642 16.0563 17.484 16.5172 17.484 18.0931C17.484 19.8803 19.416 19.6984 19.416 20.4525C19.416 20.9538 18.876 20.9953 18.46 20.9953C17.739 20.9953 17.091 20.7466 17.089 20.7567L16.883 22.1224C16.92 22.1325 17.32 22.3124 18.615 22.3124C18.962 22.3124 20.949 22.4034 20.949 20.3301C20.949 18.3913 19.11 18.7744 19.11 17.9951C19.11 17.6069 19.409 17.4856 19.959 17.4856Z" fill="#141414"/>
<path d="M23.206 17.6615H24.023L24.22 16.1938H23.45L23.607 15.284H22.064C22.03 15.3174 21.153 20.415 21.153 21.0337C21.153 21.9546 21.664 22.3629 22.383 22.3559C22.946 22.3518 23.385 22.1941 23.54 22.1507L23.733 20.8244C23.627 20.8244 23.472 20.8709 23.335 20.8709C22.798 20.8709 22.739 20.5808 22.773 20.3675L23.206 17.6615Z" fill="#141414"/>
<path d="M29.673 9.14614H26.919C26.549 9.65156 26.201 10.1893 25.886 10.715H30.799C30.458 10.1671 30.081 9.64347 29.673 9.14614Z" fill="#141414"/>
<path d="M51.161 26.7935C51.131 26.748 51.106 26.7136 51.086 26.6924C51.075 26.6823 51.061 26.6712 51.043 26.6661C51.086 26.6631 51.122 26.6469 51.148 26.6196C51.173 26.5923 51.187 26.56 51.187 26.5226C51.187 26.4963 51.179 26.471 51.164 26.4478C51.149 26.4245 51.127 26.4073 51.1 26.3982C51.075 26.3881 51.032 26.3831 50.973 26.3831H50.799V26.8936H50.881V26.6772H50.928C50.956 26.6772 50.979 26.6833 50.992 26.6954C51.013 26.7126 51.043 26.752 51.078 26.8137L51.122 26.8946H51.223L51.161 26.7935ZM50.979 26.6095H50.879V26.4559H50.973C51.012 26.4559 51.038 26.4589 51.053 26.465C51.069 26.471 51.079 26.4801 51.088 26.4912C51.096 26.5034 51.1 26.5165 51.1 26.5307C51.1 26.5539 51.092 26.5741 51.075 26.5883C51.058 26.6014 51.025 26.6095 50.979 26.6095Z" fill="#141414"/>
<path d="M31.634 12.2545H25.027C24.605 13.0622 24.325 13.6727 24.246 13.8243H32.26C32.079 13.2845 31.871 12.7619 31.634 12.2545Z" fill="#141414"/>
<path d="M10.293 14.8028L8.77197 19.3617L8.69297 14.8028H6.44097L5.20697 22.2315H6.69597L7.63497 16.6315L7.77297 22.2315H8.83597L10.819 16.6315L9.93997 22.2315H11.52L12.737 14.8028H10.293Z" fill="#141414"/>
<path d="M40.069 16.0452C39.009 16.0452 38.199 16.3888 38.199 16.3888L37.974 17.7333C37.974 17.7333 38.644 17.4583 39.656 17.4583C40.231 17.4583 40.652 17.523 40.652 17.9951C40.652 18.2822 40.599 18.3883 40.599 18.3883C40.599 18.3883 40.147 18.3509 39.935 18.3509C38.601 18.3509 37.2 18.9251 37.2 20.6627C37.2 22.0314 38.12 22.3437 38.69 22.3437C39.778 22.3437 40.248 21.6301 40.273 21.6281L40.222 22.2245H41.58L42.186 17.9284C42.189 16.1038 40.615 16.0452 40.069 16.0452ZM39.309 21.0367C38.829 21.0367 38.705 20.6678 38.705 20.4474C38.705 20.0208 38.934 19.5073 40.065 19.5073C40.328 19.5083 40.356 19.5356 40.401 19.5437C40.43 19.8065 40.237 21.0367 39.309 21.0367Z" fill="#141414"/>
<path d="M51.21 21.5472C51.169 21.4704 51.109 21.4117 51.034 21.3713C50.96 21.3299 50.884 21.3096 50.804 21.3096C50.727 21.3107 50.65 21.3309 50.574 21.3713C50.499 21.4117 50.441 21.4704 50.399 21.5472C50.357 21.623 50.336 21.7019 50.336 21.7837C50.336 21.8656 50.357 21.9434 50.399 22.0183C50.44 22.0931 50.498 22.1527 50.572 22.1951C50.647 22.2366 50.724 22.2578 50.804 22.2578C50.886 22.2578 50.964 22.2366 51.037 22.1951C51.111 22.1527 51.169 22.0931 51.21 22.0183C51.253 21.9434 51.272 21.8656 51.272 21.7837C51.272 21.6998 51.252 21.621 51.21 21.5472ZM51.145 21.9788C51.111 22.0415 51.063 22.089 51 22.1264C50.938 22.1608 50.874 22.179 50.807 22.179C50.739 22.179 50.674 22.1608 50.613 22.1264C50.55 22.091 50.503 22.0425 50.467 21.9788C50.431 21.9151 50.415 21.8505 50.415 21.7827C50.415 21.715 50.432 21.6493 50.469 21.5856C50.504 21.5229 50.551 21.4744 50.615 21.439C50.679 21.4037 50.742 21.3885 50.807 21.3885C50.872 21.3885 50.936 21.4047 50.997 21.439C51.061 21.4744 51.108 21.5219 51.143 21.5856C51.178 21.6493 51.197 21.715 51.197 21.7827C51.197 21.8505 51.18 21.9162 51.145 21.9788Z" fill="#141414"/>
<path d="M50.963 21.9445C50.934 21.8969 50.908 21.8636 50.889 21.8434C50.877 21.8323 50.864 21.8232 50.846 21.8171C50.889 21.8141 50.924 21.7979 50.95 21.7706C50.975 21.7443 50.99 21.7099 50.99 21.6736C50.99 21.6483 50.982 21.622 50.966 21.5987C50.95 21.5765 50.929 21.5593 50.904 21.5492C50.879 21.5391 50.835 21.5341 50.776 21.5341H50.6V22.0435H50.682V21.8272H50.729C50.758 21.8272 50.781 21.8333 50.795 21.8444C50.816 21.8626 50.844 21.901 50.881 21.9647L50.924 22.0445H51.025L50.963 21.9445ZM50.783 21.7575H50.684V21.6028H50.776C50.816 21.6028 50.842 21.6058 50.858 21.6109C50.871 21.618 50.883 21.625 50.891 21.6382C50.9 21.6513 50.904 21.6624 50.904 21.6796C50.904 21.7019 50.895 21.7211 50.88 21.7352C50.861 21.7524 50.83 21.7575 50.783 21.7575Z" fill="#141414"/>
<path d="M45.313 16.119C44.622 16.119 44.109 17.0722 44.109 17.0722L44.247 16.1958H42.809L41.846 22.2427H43.43C43.881 19.6589 43.963 17.5635 45.034 17.9466C45.223 16.9479 45.405 16.5607 45.61 16.1392C45.61 16.1402 45.514 16.119 45.313 16.119Z" fill="#141414"/>
<path d="M49.293 14.8109L48.96 16.8983C48.96 16.8983 48.38 16.0866 47.47 16.0866C46.055 16.0876 44.877 17.8111 44.877 19.7903C44.877 21.0691 45.506 22.3215 46.79 22.3215C47.715 22.3215 48.227 21.6695 48.227 21.6695L48.16 22.2265H49.661L50.841 14.8079L49.293 14.8109ZM47.336 20.8052C46.78 20.8052 46.52 20.3342 46.52 19.5942C46.52 18.3843 47.057 17.5867 47.736 17.5867C48.29 17.5877 48.575 17.9728 48.575 18.8806C48.575 19.7044 48.172 20.8052 47.336 20.8052Z" fill="#141414"/>
<path d="M55.026 0H1.454C0.65 0 0 0.65806 0 1.46977V35.5302C0 36.3419 0.65 37 1.454 37H55.026C55.83 37 56.48 36.3419 56.48 35.5302V1.46977C56.48 0.65806 55.83 0 55.026 0ZM51.409 26.8673C51.367 26.9441 51.31 27.0027 51.236 27.0442C51.162 27.0856 51.084 27.1069 51.004 27.1069C50.922 27.1069 50.844 27.0856 50.77 27.0442C50.697 27.0027 50.639 26.9441 50.596 26.8673C50.555 26.7935 50.534 26.7146 50.534 26.6328C50.534 26.5509 50.555 26.473 50.597 26.3962C50.638 26.3194 50.698 26.2618 50.772 26.2203C50.847 26.1809 50.923 26.1597 51.003 26.1597C51.082 26.1597 51.158 26.1809 51.232 26.2203C51.307 26.2618 51.366 26.3194 51.407 26.3962C51.449 26.473 51.469 26.5519 51.469 26.6328C51.469 26.7136 51.451 26.7955 51.409 26.8673ZM52.457 18.5005C52.459 26.5923 45.973 33.1547 37.967 33.1568C34.223 33.1578 30.809 31.7234 28.237 29.3671C25.665 31.7193 22.258 33.1527 18.52 33.1527C10.519 33.1527 4.025 26.5893 4.025 18.5005C4.025 10.4441 10.468 3.89984 18.427 3.84728C18.458 3.84728 18.489 3.84728 18.52 3.84728C22.258 3.84728 25.666 5.28066 28.238 7.6329C30.809 5.27965 34.219 3.84526 37.96 3.84425C45.966 3.84121 52.457 10.4006 52.459 18.4934C52.457 18.4954 52.457 18.4965 52.457 18.5005Z" fill="#141414"/>
<path d="M26.753 27.7649C27.212 28.333 27.698 28.8748 28.235 29.3661C28.247 29.355 28.26 29.3449 28.272 29.3348C28.272 29.3348 28.271 29.3348 28.271 29.3337H28.274C28.802 28.8475 29.295 28.3239 29.746 27.7649H26.753Z" fill="#141414"/>
<path d="M28.727 19.7226C28.727 19.7226 28.93 18.7118 28.93 18.3004C28.93 17.2723 28.424 16.0189 26.73 16.0189C25.178 16.0199 24.029 17.71 24.029 19.6205C24.029 21.8252 25.468 22.3488 26.695 22.3488C27.827 22.3488 28.325 22.092 28.325 22.092L28.597 20.5879C28.597 20.5879 27.736 20.972 26.958 20.972C25.301 20.972 25.591 19.7226 25.591 19.7226H28.727ZM26.735 17.4189C27.606 17.4189 27.445 18.4085 27.445 18.4874H25.732C25.732 18.3853 25.894 17.4189 26.735 17.4189Z" fill="#141414"/>
<path d="M35.965 16.2261C36.75 16.2261 37.381 16.6719 37.381 16.6719L37.633 15.0192C37.633 15.0192 36.699 14.6371 35.895 14.6371C34.114 14.6371 32.381 16.1998 32.381 19.1343C32.381 21.0802 33.316 22.365 35.158 22.365C35.678 22.365 36.508 22.1517 36.508 22.1517L36.784 20.4494C36.784 20.4494 36.028 20.8325 35.508 20.8325C34.412 20.8315 33.973 19.9865 33.973 19.0807C33.973 17.238 34.915 16.2261 35.965 16.2261Z" fill="#141414"/>
<path d="M24.818 24.6869C25.069 25.2317 25.361 25.7503 25.674 26.2557H30.817C31.129 25.7523 31.41 25.2287 31.661 24.6869H24.818Z" fill="#141414"/>
<path d="M32.353 16.121C31.662 16.121 31.15 17.0742 31.15 17.0742L31.289 16.1978H29.852L28.889 22.2447H30.473C30.922 19.662 31.006 17.5655 32.077 17.9486C32.265 16.9489 32.446 16.5617 32.651 16.1392C32.651 16.1392 32.555 16.1189 32.353 16.121Z" fill="#141414"/>
</svg>
