<svg width="56" height="37" viewBox="0 0 56 37" fill="none" xmlns="http://www.w3.org/2000/svg">
<rect width="56" height="37" rx="1" fill="#141414"/>
<path fill-rule="evenodd" clip-rule="evenodd" d="M17.204 11.1193V11.1259C17.1979 11.1259 15.29 11.1193 14.7812 13.1123C14.3148 14.9398 13.0005 19.9852 12.9642 20.1242H12.6007C12.6007 20.1242 11.2561 14.9663 10.7837 13.1057C10.2749 11.1127 8.36094 11.1193 8.36094 11.1193H4V26.282H8.36094V17.2771H8.54265H8.72435L11.2682 26.282H14.2967L16.8405 17.2837H17.204V26.282H21.5649V11.1193H17.204Z" fill="white"/>
<path fill-rule="evenodd" clip-rule="evenodd" d="M39.1904 18.0054V26.282H43.5513V21.4485H48.2757C50.335 21.4485 52.0794 20.0117 52.7275 18.0054H39.1904Z" fill="white"/>
<path fill-rule="evenodd" clip-rule="evenodd" d="M48.2756 11.1193H38.5786C39.0632 14.0062 41.0438 16.3236 43.6058 17.0784C44.1873 17.2506 44.799 17.3433 45.4289 17.3433H52.9031C52.9697 16.999 53 16.6481 53 16.2839C53 13.4301 50.8862 11.1193 48.2756 11.1193Z" fill="white"/>
<path fill-rule="evenodd" clip-rule="evenodd" d="M33.1335 11.1193C33.1335 11.1193 31.8555 11.2451 31.2559 12.7084L28.1669 20.1242H27.8035V11.1193H23.4425V26.282H27.5612C27.5612 26.282 28.8998 26.1496 29.4994 24.6929L32.5278 17.2771H32.8912V26.282H37.2522V11.1193H33.1335Z" fill="white"/>
</svg>
