<svg width="23" height="23" viewBox="0 0 23 23" fill="none" xmlns="http://www.w3.org/2000/svg">
<path d="M21.3412 0H1.65879C0.742603 0 0 0.742603 0 1.65879V21.3412C0 22.2574 0.742603 23 1.65879 23H21.3412C22.2574 23 23 22.2574 23 21.3412V1.65879C23 0.742603 22.2574 0 21.3412 0V0ZM17.2611 8.80285V10.3577C16.5279 10.358 15.8155 10.2143 15.1436 9.93083C14.7116 9.74845 14.3091 9.51342 13.941 9.22947L13.952 14.0155C13.9474 15.0933 13.521 16.1058 12.7494 16.8685C12.1214 17.4893 11.3256 17.8842 10.4631 18.0119C10.2604 18.0419 10.0541 18.0573 9.84557 18.0573C8.92229 18.0573 8.04569 17.7582 7.32864 17.2064C7.1937 17.1025 7.06468 16.9899 6.94178 16.8685C6.10547 16.042 5.67422 14.9216 5.74681 13.7431C5.80224 12.846 6.16139 11.9904 6.76016 11.3198C7.55236 10.4324 8.66062 9.93982 9.84557 9.93982C10.0541 9.93982 10.2604 9.95545 10.4631 9.9855V10.5604V12.1597C10.2709 12.0963 10.0657 12.0614 9.852 12.0614C8.76938 12.0614 7.89354 12.9447 7.90971 14.0281C7.91995 14.7213 8.29864 15.3272 8.85711 15.6612C9.11954 15.8182 9.42151 15.9154 9.74373 15.9331C9.9962 15.947 10.2386 15.9118 10.4631 15.8377C11.2365 15.5822 11.7945 14.8557 11.7945 13.9988L11.7971 10.7938V4.94266H13.9384C13.9405 5.15483 13.962 5.36188 14.002 5.56245C14.1636 6.37441 14.6213 7.07888 15.2583 7.55914C15.8137 7.97808 16.5053 8.22641 17.255 8.22641C17.2555 8.22641 17.2616 8.22641 17.2611 8.22591V8.80285H17.2611Z" fill="white"/>
</svg>
