<svg width="57" height="37" viewBox="0 0 57 37" fill="none" xmlns="http://www.w3.org/2000/svg">
<rect x="1" y="1" width="54" height="34" rx="2" fill="white"/>
<path d="M55.026 0H1.454C0.65 0 0 0.65806 0 1.46977V35.5302C0 36.3419 0.65 37 1.454 37H55.026C55.83 37 56.48 36.3419 56.48 35.5302V1.46977C56.48 0.65806 55.83 0 55.026 0ZM4.373 11.181H10.401C11.214 11.2123 11.869 11.4741 12.095 12.3525L13.406 18.7259C12.118 15.3922 9.014 12.6184 4.323 11.4701L4.373 11.181ZM11.667 25.7169L8.185 13.6919C10.688 15.3113 12.82 17.8809 13.571 19.669L13.977 21.154L17.785 11.3195H21.905L15.782 25.7139L11.667 25.7169ZM24.933 25.727H21.045L23.476 11.3043H27.366L24.933 25.727ZM31.699 25.9434C29.956 25.9252 28.277 25.5764 27.367 25.1731L27.914 21.9455L28.415 22.1749C29.692 22.7137 30.519 22.9321 32.076 22.9321C33.193 22.9321 34.39 22.4903 34.401 21.5239C34.408 20.8922 33.9 20.4413 32.386 19.7337C30.91 19.0443 28.956 17.8879 28.98 15.8167C29.001 13.0136 31.709 11.0576 35.552 11.0576C37.058 11.0576 38.265 11.371 39.035 11.6631L38.51 14.7897L38.159 14.6229C37.443 14.3318 36.522 14.0508 35.249 14.071C33.727 14.071 33.021 14.7119 33.021 15.3113C33.013 15.9865 33.845 16.4313 35.205 17.1005C37.448 18.1295 38.485 19.3779 38.471 21.0185C38.441 24.0106 35.788 25.9434 31.699 25.9434ZM48.549 25.7331C48.549 25.7331 48.194 24.0753 48.076 23.5719C47.51 23.5719 43.542 23.5659 43.096 23.5659C42.945 23.955 42.279 25.7331 42.279 25.7331H38.196L43.969 12.5163C44.379 11.5772 45.074 11.3195 46.006 11.3195H49.01L52.157 25.7321L48.549 25.7331Z" fill="#141414"/>
<path d="M46.542 16.3909L46.28 15.1475C46.082 15.6904 45.741 16.5627 45.763 16.5243C45.763 16.5243 44.534 19.7257 44.214 20.5556H47.443C47.287 19.8328 46.542 16.3909 46.542 16.3909Z" fill="#141414"/>
</svg>
