<svg xmlns="http://www.w3.org/2000/svg" xmlns:xlink="http://www.w3.org/1999/xlink" viewBox="0 0 163.6 126"><defs><style>.cls-1{fill:url(#Безымянный_градиент_3);}.cls-2{fill:url(#Безымянный_градиент_3-2);}.cls-3{fill:url(#Безымянный_градиент_3-3);}.cls-4{fill:url(#Безымянный_градиент_4);}.cls-5{fill:url(#Безымянный_градиент_5);}</style><linearGradient id="Безымянный_градиент_3" x1="12.43" y1="107.57" x2="52.38" y2="107.57" gradientTransform="matrix(1.13, 0, 0, -1.13, 95.7, 191.01)" gradientUnits="userSpaceOnUse"><stop offset="0" stop-color="#007940"/><stop offset="0.23" stop-color="#00873f"/><stop offset="0.74" stop-color="#40a737"/><stop offset="1" stop-color="#5cb531"/></linearGradient><linearGradient id="Безымянный_градиент_3-2" x1="12.43" y1="113.75" x2="52.34" y2="113.75" xlink:href="#Безымянный_градиент_3"/><linearGradient id="Безымянный_градиент_3-3" x1="12.43" y1="120.55" x2="52.37" y2="120.55" xlink:href="#Безымянный_градиент_3"/><linearGradient id="Безымянный_градиент_4" x1="-77" y1="113.79" x2="-36.43" y2="113.79" gradientTransform="matrix(1.13, 0, 0, -1.13, 95.7, 191.01)" gradientUnits="userSpaceOnUse"><stop offset="0" stop-color="#1f286f"/><stop offset="0.48" stop-color="#004e94"/><stop offset="0.83" stop-color="#0066b1"/><stop offset="1" stop-color="#006fbc"/></linearGradient><linearGradient id="Безымянный_градиент_5" x1="-32.5" y1="113.7" x2="6.9" y2="113.7" gradientTransform="matrix(1.13, 0, 0, -1.13, 95.7, 191.01)" gradientUnits="userSpaceOnUse"><stop offset="0" stop-color="#6c2c2f"/><stop offset="0.17" stop-color="#882730"/><stop offset="0.57" stop-color="#be1833"/><stop offset="0.86" stop-color="#dc0436"/><stop offset="1" stop-color="#e60039"/></linearGradient></defs><g id="Слой_2" data-name="Слой 2"><g id="レイヤー_1" data-name="レイヤー 1"><path d="M163.6,100.6A25.44,25.44,0,0,1,138.2,126H0V25.4A25.44,25.44,0,0,1,25.4,0H163.6Z"/><path class="cls-1" d="M118.6,74.8h10.5c.3,0,1-.1,1.3-.1a4.68,4.68,0,0,0,3.7-4.7,4.85,4.85,0,0,0-3.7-4.7,5.28,5.28,0,0,0-1.3-.1H118.6Z"/><path class="cls-2" d="M127.9,8.5a18.2,18.2,0,0,0-18.2,18.2V45.6h25.7a10.28,10.28,0,0,1,1.8.1c5.8.3,10.1,3.3,10.1,8.5,0,4.1-2.9,7.6-8.3,8.3v.2c5.9.4,10.4,3.7,10.4,8.8,0,5.5-5,9.1-11.6,9.1H109.6v37h26.7a18.2,18.2,0,0,0,18.2-18.2V8.5Z"/><path class="cls-3" d="M132.8,55.4a4.25,4.25,0,0,0-3.7-4.3c-.2,0-.7-.1-1-.1h-9.5v8.8h9.5a2.79,2.79,0,0,0,1-.1A4.25,4.25,0,0,0,132.8,55.4Z"/><path class="cls-4" d="M27.3,8.5A18.2,18.2,0,0,0,9.1,26.7V71.6a36,36,0,0,0,15.7,4.1c6.3,0,9.7-3.8,9.7-9V45.5H50.1V66.6c0,8.2-5.1,14.9-22.4,14.9A76.77,76.77,0,0,1,9,79.2v38.3H35.7A18.2,18.2,0,0,0,53.9,99.3V8.5Z"/><path class="cls-5" d="M77.6,8.5A18.2,18.2,0,0,0,59.4,26.7V50.5C64,46.6,72,44.1,84.9,44.7a81.14,81.14,0,0,1,14.3,2.2v7.7a34.62,34.62,0,0,0-13.8-4c-9.8-.7-15.7,4.1-15.7,12.5s5.9,13.3,15.7,12.5a36.32,36.32,0,0,0,13.8-4v7.7a79.21,79.21,0,0,1-14.3,2.2C72,82.1,64,79.6,59.4,75.7v42H86.1a18.2,18.2,0,0,0,18.2-18.2V8.5Z"/></g></g></svg>